<mxfile host="app.diagrams.net" modified="2021-11-21T10:49:11.867Z" agent="5.0 (Windows NT 10.0; Win64; x64) AppleWebKit/537.36 (KHTML, like Gecko) Chrome/95.0.4638.69 Safari/537.36" etag="Ia-6E5VoQF1JWfKt6MEH" version="15.8.3" type="github">
  <diagram id="kgpKYQtTHZ0yAKxKKP6v" name="Page-1">
    <mxGraphModel dx="1767" dy="776" grid="1" gridSize="10" guides="1" tooltips="1" connect="1" arrows="1" fold="1" page="1" pageScale="1" pageWidth="850" pageHeight="1100" background="#FFFFFF" math="0" shadow="0">
      <root>
        <mxCell id="0" />
        <mxCell id="1" parent="0" />
        <mxCell id="SJU6s27ehSv_D2rG3Ygi-1" value="" style="shape=umlLifeline;participant=umlActor;perimeter=lifelinePerimeter;whiteSpace=wrap;html=1;container=1;collapsible=0;recursiveResize=0;verticalAlign=top;spacingTop=36;outlineConnect=0;sketch=1;hachureGap=4;fontFamily=Architects Daughter;fontSource=https%3A%2F%2Ffonts.googleapis.com%2Fcss%3Ffamily%3DArchitects%2BDaughter;fontSize=20;" parent="1" vertex="1">
          <mxGeometry x="270" y="500" width="20" height="590" as="geometry" />
        </mxCell>
        <mxCell id="SJU6s27ehSv_D2rG3Ygi-5" value="" style="html=1;points=[];perimeter=orthogonalPerimeter;sketch=1;hachureGap=4;fontFamily=Helvetica;fontSize=20;" parent="SJU6s27ehSv_D2rG3Ygi-1" vertex="1">
          <mxGeometry x="5" y="70" width="10" height="510" as="geometry" />
        </mxCell>
        <mxCell id="SJU6s27ehSv_D2rG3Ygi-3" value=": Certified" style="shape=umlLifeline;perimeter=lifelinePerimeter;whiteSpace=wrap;html=1;container=1;collapsible=0;recursiveResize=0;outlineConnect=0;sketch=1;hachureGap=4;fontFamily=Helvetica;fontSize=20;" parent="1" vertex="1">
          <mxGeometry x="450" y="490" width="100" height="600" as="geometry" />
        </mxCell>
        <mxCell id="SJU6s27ehSv_D2rG3Ygi-4" value="" style="html=1;points=[];perimeter=orthogonalPerimeter;sketch=1;hachureGap=4;fontFamily=Helvetica;fontSize=20;" parent="SJU6s27ehSv_D2rG3Ygi-3" vertex="1">
          <mxGeometry x="45" y="70" width="10" height="520" as="geometry" />
        </mxCell>
        <mxCell id="SJU6s27ehSv_D2rG3Ygi-19" value="return" style="html=1;verticalAlign=bottom;endArrow=open;dashed=1;endSize=8;rounded=0;sketch=1;hachureGap=4;fontFamily=Helvetica;fontSize=15;sourcePerimeterSpacing=8;targetPerimeterSpacing=8;curved=1;exitX=-0.04;exitY=0.182;exitDx=0;exitDy=0;exitPerimeter=0;entryX=0.28;entryY=0.919;entryDx=0;entryDy=0;entryPerimeter=0;" parent="SJU6s27ehSv_D2rG3Ygi-3" target="SJU6s27ehSv_D2rG3Ygi-5" edge="1">
          <mxGeometry relative="1" as="geometry">
            <mxPoint x="50.10000000000002" y="550" as="sourcePoint" />
            <mxPoint x="-164.9999999999999" y="550" as="targetPoint" />
          </mxGeometry>
        </mxCell>
        <mxCell id="SJU6s27ehSv_D2rG3Ygi-8" value="sd 생체 인증" style="shape=umlFrame;whiteSpace=wrap;html=1;sketch=1;hachureGap=4;fontFamily=Helvetica;fontSize=15;width=150;height=30;" parent="1" vertex="1">
          <mxGeometry x="90" y="460" width="620" height="630" as="geometry" />
        </mxCell>
        <mxCell id="SJU6s27ehSv_D2rG3Ygi-9" value="사용자" style="text;html=1;strokeColor=none;fillColor=none;align=center;verticalAlign=middle;whiteSpace=wrap;rounded=0;sketch=1;hachureGap=4;fontFamily=Helvetica;fontSize=15;" parent="1" vertex="1">
          <mxGeometry x="250" y="460" width="60" height="30" as="geometry" />
        </mxCell>
        <mxCell id="SJU6s27ehSv_D2rG3Ygi-10" value="alt" style="shape=umlFrame;whiteSpace=wrap;html=1;sketch=1;hachureGap=4;fontFamily=Helvetica;fontSize=15;" parent="1" vertex="1">
          <mxGeometry x="210" y="560" width="360" height="530" as="geometry" />
        </mxCell>
        <mxCell id="SJU6s27ehSv_D2rG3Ygi-12" value="certify()" style="html=1;verticalAlign=bottom;endArrow=block;rounded=0;sketch=1;hachureGap=4;fontFamily=Helvetica;fontSize=15;startSize=14;endSize=14;sourcePerimeterSpacing=8;targetPerimeterSpacing=8;curved=1;exitX=1.48;exitY=0.071;exitDx=0;exitDy=0;exitPerimeter=0;entryX=0.04;entryY=0.09;entryDx=0;entryDy=0;entryPerimeter=0;" parent="1" source="SJU6s27ehSv_D2rG3Ygi-5" target="SJU6s27ehSv_D2rG3Ygi-4" edge="1">
          <mxGeometry width="80" relative="1" as="geometry">
            <mxPoint x="220" y="760" as="sourcePoint" />
            <mxPoint x="300" y="760" as="targetPoint" />
          </mxGeometry>
        </mxCell>
        <mxCell id="SJU6s27ehSv_D2rG3Ygi-13" value="return" style="html=1;verticalAlign=bottom;endArrow=open;dashed=1;endSize=8;rounded=0;sketch=1;hachureGap=4;fontFamily=Helvetica;fontSize=15;sourcePerimeterSpacing=8;targetPerimeterSpacing=8;curved=1;exitX=-0.28;exitY=0.15;exitDx=0;exitDy=0;exitPerimeter=0;" parent="1" source="SJU6s27ehSv_D2rG3Ygi-4" target="SJU6s27ehSv_D2rG3Ygi-1" edge="1">
          <mxGeometry x="-0.0274" y="-5" relative="1" as="geometry">
            <mxPoint x="300" y="760" as="sourcePoint" />
            <mxPoint x="220" y="760" as="targetPoint" />
            <Array as="points">
              <mxPoint x="470" y="640" />
            </Array>
            <mxPoint as="offset" />
          </mxGeometry>
        </mxCell>
        <mxCell id="SJU6s27ehSv_D2rG3Ygi-14" value="ceritfy" style="html=1;verticalAlign=bottom;endArrow=block;rounded=0;sketch=1;hachureGap=4;fontFamily=Helvetica;fontSize=15;startSize=14;endSize=14;sourcePerimeterSpacing=8;targetPerimeterSpacing=8;curved=1;entryX=0.28;entryY=0.51;entryDx=0;entryDy=0;entryPerimeter=0;exitX=0.84;exitY=0.505;exitDx=0;exitDy=0;exitPerimeter=0;" parent="1" source="SJU6s27ehSv_D2rG3Ygi-5" target="SJU6s27ehSv_D2rG3Ygi-4" edge="1">
          <mxGeometry width="80" relative="1" as="geometry">
            <mxPoint x="290" y="900.55" as="sourcePoint" />
            <mxPoint x="495.60000000000014" y="900.0000000000002" as="targetPoint" />
          </mxGeometry>
        </mxCell>
        <mxCell id="SJU6s27ehSv_D2rG3Ygi-15" value="certify" style="html=1;verticalAlign=bottom;endArrow=block;rounded=0;sketch=1;hachureGap=4;fontFamily=Helvetica;fontSize=15;startSize=14;endSize=14;sourcePerimeterSpacing=8;targetPerimeterSpacing=8;curved=1;exitX=1.48;exitY=0.071;exitDx=0;exitDy=0;exitPerimeter=0;entryX=0.04;entryY=0.09;entryDx=0;entryDy=0;entryPerimeter=0;" parent="1" edge="1">
          <mxGeometry width="80" relative="1" as="geometry">
            <mxPoint x="289.99999999999994" y="730.5499999999998" as="sourcePoint" />
            <mxPoint x="495.6000000000001" y="730.0000000000001" as="targetPoint" />
          </mxGeometry>
        </mxCell>
        <mxCell id="SJU6s27ehSv_D2rG3Ygi-16" value="return" style="html=1;verticalAlign=bottom;endArrow=open;dashed=1;endSize=8;rounded=0;sketch=1;hachureGap=4;fontFamily=Helvetica;fontSize=15;sourcePerimeterSpacing=8;targetPerimeterSpacing=8;curved=1;exitX=-0.36;exitY=0.567;exitDx=0;exitDy=0;exitPerimeter=0;" parent="1" source="SJU6s27ehSv_D2rG3Ygi-4" target="SJU6s27ehSv_D2rG3Ygi-1" edge="1">
          <mxGeometry relative="1" as="geometry">
            <mxPoint x="495.0999999999999" y="949.9999999999998" as="sourcePoint" />
            <mxPoint x="280" y="949.9999999999998" as="targetPoint" />
          </mxGeometry>
        </mxCell>
        <mxCell id="SJU6s27ehSv_D2rG3Ygi-17" value="return" style="html=1;verticalAlign=bottom;endArrow=open;dashed=1;endSize=8;rounded=0;sketch=1;hachureGap=4;fontFamily=Helvetica;fontSize=15;sourcePerimeterSpacing=8;targetPerimeterSpacing=8;curved=1;exitX=-0.04;exitY=0.182;exitDx=0;exitDy=0;exitPerimeter=0;" parent="1" edge="1">
          <mxGeometry relative="1" as="geometry">
            <mxPoint x="495.0999999999999" y="759.9999999999998" as="sourcePoint" />
            <mxPoint x="280" y="759.9999999999998" as="targetPoint" />
          </mxGeometry>
        </mxCell>
        <mxCell id="SJU6s27ehSv_D2rG3Ygi-18" value="ceritfy()" style="html=1;verticalAlign=bottom;endArrow=block;rounded=0;sketch=1;hachureGap=4;fontFamily=Helvetica;fontSize=15;startSize=14;endSize=14;sourcePerimeterSpacing=8;targetPerimeterSpacing=8;curved=1;" parent="1" edge="1">
          <mxGeometry width="80" relative="1" as="geometry">
            <mxPoint x="279.5" y="1002" as="sourcePoint" />
            <mxPoint x="500" y="1002" as="targetPoint" />
          </mxGeometry>
        </mxCell>
        <mxCell id="SJU6s27ehSv_D2rG3Ygi-20" value="opt" style="shape=umlFrame;whiteSpace=wrap;html=1;sketch=1;hachureGap=4;fontFamily=Helvetica;fontSize=15;" parent="1" vertex="1">
          <mxGeometry x="230" y="930" width="330" height="150" as="geometry" />
        </mxCell>
        <mxCell id="SJU6s27ehSv_D2rG3Ygi-21" value="" style="endArrow=none;dashed=1;html=1;dashPattern=1 3;strokeWidth=2;rounded=0;sketch=1;hachureGap=4;fontFamily=Helvetica;fontSize=15;startSize=14;endSize=14;sourcePerimeterSpacing=8;targetPerimeterSpacing=8;curved=1;exitX=0.002;exitY=0.249;exitDx=0;exitDy=0;exitPerimeter=0;entryX=1.006;entryY=0.246;entryDx=0;entryDy=0;entryPerimeter=0;" parent="1" source="SJU6s27ehSv_D2rG3Ygi-10" target="SJU6s27ehSv_D2rG3Ygi-10" edge="1">
          <mxGeometry width="50" height="50" relative="1" as="geometry">
            <mxPoint x="440" y="780" as="sourcePoint" />
            <mxPoint x="490" y="740" as="targetPoint" />
            <Array as="points">
              <mxPoint x="590" y="680" />
            </Array>
          </mxGeometry>
        </mxCell>
        <mxCell id="SJU6s27ehSv_D2rG3Ygi-24" value="" style="endArrow=none;dashed=1;html=1;dashPattern=1 3;strokeWidth=2;rounded=0;sketch=1;hachureGap=4;fontFamily=Helvetica;fontSize=15;startSize=14;endSize=14;sourcePerimeterSpacing=8;targetPerimeterSpacing=8;curved=1;exitX=0;exitY=0.455;exitDx=0;exitDy=0;exitPerimeter=0;entryX=1.016;entryY=0.454;entryDx=0;entryDy=0;entryPerimeter=0;" parent="1" source="SJU6s27ehSv_D2rG3Ygi-10" target="SJU6s27ehSv_D2rG3Ygi-10" edge="1">
          <mxGeometry width="50" height="50" relative="1" as="geometry">
            <mxPoint x="440" y="790" as="sourcePoint" />
            <mxPoint x="490" y="740" as="targetPoint" />
          </mxGeometry>
        </mxCell>
        <mxCell id="SJU6s27ehSv_D2rG3Ygi-25" value="" style="endArrow=none;dashed=1;html=1;dashPattern=1 3;strokeWidth=2;rounded=0;sketch=1;hachureGap=4;fontFamily=Helvetica;fontSize=15;startSize=14;endSize=14;sourcePerimeterSpacing=8;targetPerimeterSpacing=8;curved=1;exitX=1.017;exitY=0.657;exitDx=0;exitDy=0;exitPerimeter=0;entryX=-0.002;entryY=0.651;entryDx=0;entryDy=0;entryPerimeter=0;" parent="1" source="SJU6s27ehSv_D2rG3Ygi-10" target="SJU6s27ehSv_D2rG3Ygi-10" edge="1">
          <mxGeometry width="50" height="50" relative="1" as="geometry">
            <mxPoint x="380" y="920" as="sourcePoint" />
            <mxPoint x="430" y="870" as="targetPoint" />
          </mxGeometry>
        </mxCell>
        <mxCell id="SJU6s27ehSv_D2rG3Ygi-26" value="[지문인증 시]" style="text;html=1;strokeColor=none;fillColor=none;align=center;verticalAlign=middle;whiteSpace=wrap;rounded=0;sketch=1;hachureGap=4;fontFamily=Helvetica;fontSize=15;" parent="1" vertex="1">
          <mxGeometry x="290" y="560" width="100" height="30" as="geometry" />
        </mxCell>
        <mxCell id="SJU6s27ehSv_D2rG3Ygi-27" value="[홍채인증 시]" style="text;html=1;strokeColor=none;fillColor=none;align=center;verticalAlign=middle;whiteSpace=wrap;rounded=0;sketch=1;hachureGap=4;fontFamily=Helvetica;fontSize=15;" parent="1" vertex="1">
          <mxGeometry x="290" y="690" width="100" height="30" as="geometry" />
        </mxCell>
        <mxCell id="SJU6s27ehSv_D2rG3Ygi-28" value="[인증 실패 시 핀 번호 입력]" style="text;html=1;strokeColor=none;fillColor=none;align=center;verticalAlign=middle;whiteSpace=wrap;rounded=0;sketch=1;hachureGap=4;fontFamily=Helvetica;fontSize=15;" parent="1" vertex="1">
          <mxGeometry x="295" y="950" width="200" height="30" as="geometry" />
        </mxCell>
        <mxCell id="SJU6s27ehSv_D2rG3Ygi-29" value="[안명인증 시]" style="text;html=1;strokeColor=none;fillColor=none;align=center;verticalAlign=middle;whiteSpace=wrap;rounded=0;sketch=1;hachureGap=4;fontFamily=Helvetica;fontSize=15;" parent="1" vertex="1">
          <mxGeometry x="290" y="870" width="120" height="20" as="geometry" />
        </mxCell>
      </root>
    </mxGraphModel>
  </diagram>
</mxfile>
